<svg width="240" height="160" viewBox="0 0 240 160" fill="none" xmlns="http://www.w3.org/2000/svg">
  <defs>
    <linearGradient id="chartBg" x1="0%" y1="0%" x2="100%" y2="100%">
      <stop offset="0%" style="stop-color:#48CBD9;stop-opacity:0.1"/>
      <stop offset="100%" style="stop-color:#37367B;stop-opacity:0.2"/>
    </linearGradient>
    <linearGradient id="chartLine" x1="0%" y1="0%" x2="100%" y2="0%">
      <stop offset="0%" style="stop-color:#48CBD9"/>
      <stop offset="50%" style="stop-color:#79E7E7"/>
      <stop offset="100%" style="stop-color:#48CBD9"/>
    </linearGradient>
  </defs>
  
  <rect width="240" height="160" fill="url(#chartBg)" rx="12"/>
  
  <!-- Chart area -->
  <rect x="20" y="20" width="200" height="120" fill="rgba(255,255,255,0.05)" rx="8" stroke="rgba(72,203,217,0.3)" stroke-width="1"/>
  
  <!-- Grid lines -->
  <line x1="20" y1="50" x2="220" y2="50" stroke="rgba(72,203,217,0.2)" stroke-width="1"/>
  <line x1="20" y1="80" x2="220" y2="80" stroke="rgba(72,203,217,0.2)" stroke-width="1"/>
  <line x1="20" y1="110" x2="220" y2="110" stroke="rgba(72,203,217,0.2)" stroke-width="1"/>
  
  <!-- Chart line -->
  <path d="M30 120 Q60 100 90 90 Q120 70 150 80 Q180 85 210 60" 
        stroke="url(#chartLine)" 
        stroke-width="3" 
        fill="none" 
        opacity="0.9"/>
  
  <!-- Data points -->
  <circle cx="30" cy="120" r="4" fill="#48CBD9"/>
  <circle cx="90" cy="90" r="4" fill="#79E7E7"/>
  <circle cx="150" cy="80" r="4" fill="#48CBD9"/>
  <circle cx="210" cy="60" r="4" fill="#79E7E7"/>
  
  <!-- Analytics icon -->
  <g transform="translate(195, 25)">
    <rect width="20" height="15" rx="2" fill="rgba(72,203,217,0.3)"/>
    <path d="M2 12 L6 8 L10 10 L18 4" stroke="#48CBD9" stroke-width="2" fill="none"/>
  </g>
</svg>