<svg width="600" height="400" viewBox="0 0 600 400" fill="none" xmlns="http://www.w3.org/2000/svg">
  <defs>
    <linearGradient id="defiGradient1" x1="0%" y1="0%" x2="100%" y2="100%">
      <stop offset="0%" style="stop-color:#8b5cf6" />
      <stop offset="100%" style="stop-color:#3b82f6" />
    </linearGradient>
    <linearGradient id="defiGradient2" x1="0%" y1="0%" x2="100%" y2="100%">
      <stop offset="0%" style="stop-color:#3b82f6" />
      <stop offset="100%" style="stop-color:#06b6d4" />
    </linearGradient>
    <filter id="defiGlow">
      <feGaussianBlur stdDeviation="2" result="coloredBlur"/>
      <feMerge> 
        <feMergeNode in="coloredBlur"/>
        <feMergeNode in="SourceGraphic"/>
      </feMerge>
    </filter>
  </defs>
  
  <!-- Central wallet -->
  <g transform="translate(300, 200)">
    <!-- Wallet body -->
    <rect x="-40" y="-25" width="80" height="50" rx="8" fill="url(#defiGradient1)" filter="url(#defiGlow)"/>
    <rect x="-35" y="-20" width="70" height="40" rx="6" fill="none" stroke="#ffffff" stroke-width="1" opacity="0.3"/>
    
    <!-- Wallet icon -->
    <path d="M-15,-10 L15,-10 L15,10 L-15,10 Z M10,-5 L10,5 M5,-5 L5,5" stroke="#ffffff" stroke-width="2" fill="none"/>
  </g>
  
  <!-- Network connections -->
  <g opacity="0.8">
    <!-- Ethereum -->
    <g transform="translate(150, 100)">
      <circle cx="0" cy="0" r="30" fill="url(#defiGradient1)" opacity="0.2" filter="url(#defiGlow)"/>
      <polygon points="0,-15 12,-3 0,3 -12,-3" fill="url(#defiGradient1)"/>
      <polygon points="0,3 12,6 0,15 -12,6" fill="url(#defiGradient1)" opacity="0.7"/>
      <text x="0" y="45" text-anchor="middle" fill="#8b5cf6" font-size="12" font-weight="bold">ETH</text>
    </g>
    
    <!-- Polygon -->
    <g transform="translate(450, 100)">
      <circle cx="0" cy="0" r="30" fill="url(#defiGradient2)" opacity="0.2" filter="url(#defiGlow)"/>
      <polygon points="0,-12 10,-6 10,6 0,12 -10,6 -10,-6" fill="url(#defiGradient2)"/>
      <text x="0" y="45" text-anchor="middle" fill="#3b82f6" font-size="12" font-weight="bold">MATIC</text>
    </g>
    
    <!-- BSC -->
    <g transform="translate(150, 300)">
      <circle cx="0" cy="0" r="30" fill="#f59e0b" opacity="0.2" filter="url(#defiGlow)"/>
      <circle cx="0" cy="0" r="12" fill="#f59e0b"/>
      <circle cx="0" cy="0" r="8" fill="#ffffff"/>
      <text x="0" y="45" text-anchor="middle" fill="#f59e0b" font-size="12" font-weight="bold">BNB</text>
    </g>
    
    <!-- Arbitrum -->
    <g transform="translate(450, 300)">
      <circle cx="0" cy="0" r="30" fill="#06b6d4" opacity="0.2" filter="url(#defiGlow)"/>
      <polygon points="0,-10 8,0 4,8 -4,8 -8,0" fill="#06b6d4"/>
      <text x="0" y="45" text-anchor="middle" fill="#06b6d4" font-size="12" font-weight="bold">ARB</text>
    </g>
  </g>
  
  <!-- Connection lines -->
  <g opacity="0.4">
    <line x1="150" y1="130" x2="260" y2="175" stroke="url(#defiGradient1)" stroke-width="2">
      <animate attributeName="opacity" values="0.2;0.6;0.2" dur="3s" repeatCount="indefinite"/>
    </line>
    <line x1="450" y1="130" x2="340" y2="175" stroke="url(#defiGradient2)" stroke-width="2">
      <animate attributeName="opacity" values="0.2;0.6;0.2" dur="3.5s" repeatCount="indefinite"/>
    </line>
    <line x1="150" y1="270" x2="260" y2="225" stroke="#f59e0b" stroke-width="2">
      <animate attributeName="opacity" values="0.2;0.6;0.2" dur="2.8s" repeatCount="indefinite"/>
    </line>
    <line x1="450" y1="270" x2="340" y2="225" stroke="#06b6d4" stroke-width="2">
      <animate attributeName="opacity" values="0.2;0.6;0.2" dur="4s" repeatCount="indefinite"/>
    </line>
  </g>
  
  <!-- Animated particles -->
  <g opacity="0.6">
    <circle cx="200" cy="150" r="2" fill="#8b5cf6">
      <animateMotion dur="5s" repeatCount="indefinite">
        <path d="M0,0 Q50,-20 100,0"/>
      </animateMotion>
    </circle>
    <circle cx="400" cy="150" r="2" fill="#3b82f6">
      <animateMotion dur="4s" repeatCount="indefinite">
        <path d="M0,0 Q-50,-20 -100,0"/>
      </animateMotion>
    </circle>
    <circle cx="200" cy="250" r="2" fill="#f59e0b">
      <animateMotion dur="6s" repeatCount="indefinite">
        <path d="M0,0 Q50,20 100,0"/>
      </animateMotion>
    </circle>
    <circle cx="400" cy="250" r="2" fill="#06b6d4">
      <animateMotion dur="3.5s" repeatCount="indefinite">
        <path d="M0,0 Q-50,20 -100,0"/>
      </animateMotion>
    </circle>
  </g>
</svg>