<svg width="1920" height="1080" viewBox="0 0 1920 1080" fill="none" xmlns="http://www.w3.org/2000/svg">
  <defs>
    <filter id="particleGlow">
      <feGaussianBlur stdDeviation="3" result="coloredBlur"/>
      <feMerge> 
        <feMergeNode in="coloredBlur"/>
        <feMergeNode in="SourceGraphic"/>
      </feMerge>
    </filter>
  </defs>
  
  <!-- Floating neon particles -->
  <g opacity="0.8">
    <!-- Cyan particles -->
    <circle cx="100" cy="200" r="3" fill="#00ffff" filter="url(#particleGlow)">
      <animateMotion dur="15s" repeatCount="indefinite">
        <path d="M0,0 Q200,-100 400,0 T800,50 Q1000,-50 1200,0"/>
      </animateMotion>
      <animate attributeName="opacity" values="0.3;1;0.3" dur="3s" repeatCount="indefinite"/>
    </circle>
    
    <circle cx="300" cy="400" r="2" fill="#00ffff" filter="url(#particleGlow)">
      <animateMotion dur="20s" repeatCount="indefinite">
        <path d="M0,0 Q-100,200 0,400 T200,500 Q400,300 600,400"/>
      </animateMotion>
      <animate attributeName="opacity" values="0.2;0.8;0.2" dur="4s" repeatCount="indefinite"/>
    </circle>
    
    <!-- Purple particles -->
    <circle cx="800" cy="150" r="4" fill="#8b5cf6" filter="url(#particleGlow)">
      <animateMotion dur="18s" repeatCount="indefinite">
        <path d="M0,0 Q-200,100 -400,0 T-800,-50 Q-1000,50 -1200,0"/>
      </animateMotion>
      <animate attributeName="opacity" values="0.4;1;0.4" dur="2.5s" repeatCount="indefinite"/>
    </circle>
    
    <circle cx="1200" cy="300" r="3" fill="#8b5cf6" filter="url(#particleGlow)">
      <animateMotion dur="22s" repeatCount="indefinite">
        <path d="M0,0 Q100,-200 0,-400 T-200,-500 Q-400,-300 -600,-400"/>
      </animateMotion>
      <animate attributeName="opacity" values="0.3;0.9;0.3" dur="3.5s" repeatCount="indefinite"/>
    </circle>
    
    <!-- Magenta particles -->
    <circle cx="500" cy="600" r="2.5" fill="#ff00ff" filter="url(#particleGlow)">
      <animateMotion dur="16s" repeatCount="indefinite">
        <path d="M0,0 Q300,100 600,0 T1200,50 Q1400,-50 1600,0"/>
      </animateMotion>
      <animate attributeName="opacity" values="0.2;0.7;0.2" dur="4.5s" repeatCount="indefinite"/>
    </circle>
    
    <circle cx="1400" cy="800" r="3.5" fill="#ff00ff" filter="url(#particleGlow)">
      <animateMotion dur="24s" repeatCount="indefinite">
        <path d="M0,0 Q-300,-100 -600,0 T-1200,-50 Q-1400,50 -1600,0"/>
      </animateMotion>
      <animate attributeName="opacity" values="0.4;1;0.4" dur="2s" repeatCount="indefinite"/>
    </circle>
    
    <!-- Small ambient particles -->
    <circle cx="200" cy="500" r="1.5" fill="#00ffff" opacity="0.6">
      <animate attributeName="cy" values="500;480;500" dur="8s" repeatCount="indefinite"/>
      <animate attributeName="opacity" values="0.3;0.8;0.3" dur="5s" repeatCount="indefinite"/>
    </circle>
    
    <circle cx="600" cy="700" r="1" fill="#8b5cf6" opacity="0.5">
      <animate attributeName="cy" values="700;680;700" dur="10s" repeatCount="indefinite"/>
      <animate attributeName="opacity" values="0.2;0.7;0.2" dur="6s" repeatCount="indefinite"/>
    </circle>
    
    <circle cx="1000" cy="400" r="2" fill="#ff00ff" opacity="0.7">
      <animate attributeName="cy" values="400;380;400" dur="7s" repeatCount="indefinite"/>
      <animate attributeName="opacity" values="0.4;0.9;0.4" dur="3s" repeatCount="indefinite"/>
    </circle>
    
    <circle cx="1600" cy="600" r="1.5" fill="#00ffff" opacity="0.6">
      <animate attributeName="cy" values="600;580;600" dur="9s" repeatCount="indefinite"/>
      <animate attributeName="opacity" values="0.3;0.8;0.3" dur="4s" repeatCount="indefinite"/>
    </circle>
  </g>
</svg>