<svg width="240" height="160" viewBox="0 0 240 160" fill="none" xmlns="http://www.w3.org/2000/svg">
  <defs>
    <linearGradient id="shieldBg" x1="0%" y1="0%" x2="100%" y2="100%">
      <stop offset="0%" style="stop-color:#48CBD9;stop-opacity:0.1"/>
      <stop offset="100%" style="stop-color:#37367B;stop-opacity:0.2"/>
    </linearGradient>
    <linearGradient id="shield" x1="0%" y1="0%" x2="100%" y2="100%">
      <stop offset="0%" style="stop-color:#48CBD9"/>
      <stop offset="100%" style="stop-color:#37367B"/>
    </linearGradient>
  </defs>
  
  <rect width="240" height="160" fill="url(#shieldBg)" rx="12"/>
  
  <!-- Central shield -->
  <g transform="translate(120, 80)">
    <path d="M0 -50 C-30 -40 -30 -20 -30 10 C-30 40 0 60 0 60 C0 60 30 40 30 10 C30 -20 30 -40 0 -50 Z" 
          fill="url(#shield)" opacity="0.9"/>
    
    <!-- Checkmark -->
    <path d="M-15 -5 L-5 5 L15 -15" stroke="white" stroke-width="4" fill="none" stroke-linecap="round" stroke-linejoin="round"/>
  </g>
  
  <!-- Security elements around shield -->
  <circle cx="60" cy="50" r="3" fill="#79E7E7" opacity="0.6"/>
  <circle cx="180" cy="60" r="3" fill="#48CBD9" opacity="0.7"/>
  <circle cx="80" cy="120" r="3" fill="#79E7E7" opacity="0.5"/>
  <circle cx="160" cy="110" r="3" fill="#48CBD9" opacity="0.6"/>
  
  <!-- Lock icons -->
  <g transform="translate(40, 30)">
    <rect x="0" y="4" width="8" height="8" rx="1" fill="rgba(72,203,217,0.4)"/>
    <path d="M2 4 C2 2 3 1 4 1 C5 1 6 2 6 4" stroke="#48CBD9" stroke-width="1" fill="none"/>
  </g>
  
  <g transform="translate(190, 100)">
    <rect x="0" y="4" width="8" height="8" rx="1" fill="rgba(72,203,217,0.4)"/>
    <path d="M2 4 C2 2 3 1 4 1 C5 1 6 2 6 4" stroke="#48CBD9" stroke-width="1" fill="none"/>
  </g>
</svg>